# xmcd
#
# Track frame offsets:
#	150
#	13050
#	29925
#	46950
#	60300
#	74250
#	85500
#	101100
#	116775
#	130725
#	148575
#	161025
#	175350
#
# Disc length: 2464 seconds
# Revision: 0
# Processed by: cddbd v1.5.2PL0 Copyright (c) Steve Scherf et al.
# Submitted via: dBpowerAMP V12.0
#
DISCID=b7099e0d
DTITLE=Travis Frye and Blue Mountain - Living In A Moment
DYEAR=2014
DGENRE=Country
TTITLE0=Living In A Moment
TTITLE1=Rambler's Blues
TTITLE2=Fifteen Years Ago
TTITLE3=I'd Write You a Love Song Every Day
TTITLE4=There's A River
TTITLE5=Those Trains Don't Run Anymore
TTITLE6=Hills Of Carolina
TTITLE7=Spider Bit the Baby
TTITLE8=Ain't No Ashe Will Burn
TTITLE9=Turn Your Radio On
TTITLE10=Settin' Flat On Ready
TTITLE11=Bandy the Rodeo Clown
TTITLE12=Grass Fire
EXTD=
EXTT0=
EXTT1=
EXTT2=
EXTT3=
EXTT4=
EXTT5=
EXTT6=
EXTT7=
EXTT8=
EXTT9=
EXTT10=
EXTT11=
EXTT12=
PLAYORDER=
